HIERARCHY
ROOT Hips
{
	OFFSET -3.958830 18.904000 13.208200
	CHANNELS 6 Xposition Yposition Zposition Zrotation Yrotation Xrotation 
	JOINT LHipJoint
	{
		OFFSET 0.000000 0.000000 0.000000
		CHANNELS 3 Zrotation Yrotation Xrotation
		JOINT LeftUpLeg
		{
			OFFSET 1.800000 -1.400000 0.085000
			CHANNELS 3 Zrotation Yrotation Xrotation
			JOINT LeftLeg
			{
				OFFSET 2.215000 -6.000000 0.000000
				CHANNELS 3 Zrotation Yrotation Xrotation
				JOINT LeftFoot
				{
					OFFSET 2.500000 -6.900000 0.000000
					CHANNELS 3 Zrotation Yrotation Xrotation
					JOINT LeftToeBase
					{
						OFFSET 0.200000 -0.500000 1.950000
						CHANNELS 3 Zrotation Yrotation Xrotation
						End Site
						{
							OFFSET 0.000000 0.000000 0.000000
						}
					}
				}
			}
		}
	}
	JOINT RHipJoint
	{
		OFFSET 0.000000 0.000000 0.000000
		CHANNELS 3 Zrotation Yrotation Xrotation
		JOINT RightUpLeg
		{
			OFFSET -1.800000 -1.400000 0.085000
			CHANNELS 3 Zrotation Yrotation Xrotation
			JOINT RightLeg
			{
				OFFSET -2.215000 -6.000000 0.000000
				CHANNELS 3 Zrotation Yrotation Xrotation
				JOINT RightFoot
				{
					OFFSET -2.500000 -6.900000 0.000000
					CHANNELS 3 Zrotation Yrotation Xrotation
					JOINT RightToeBase
					{
						OFFSET -0.200000 -0.500000 1.950000
						CHANNELS 3 Zrotation Yrotation Xrotation
						End Site
						{
							OFFSET 0.000000 0.000000 0.000000
						}
					}
				}
			}
		}
	}
	JOINT LowerBack
	{
		OFFSET 0.000000 0.000000 0.000000
		CHANNELS 3 Zrotation Yrotation Xrotation
		JOINT Spine
		{
			OFFSET -0.087000 1.940000 -0.288900
			CHANNELS 3 Zrotation Yrotation Xrotation
			JOINT Spine1
			{
				OFFSET 0.000000 1.950000 0.060000
				CHANNELS 3 Zrotation Yrotation Xrotation
				JOINT Neck
				{
					OFFSET 0.000000 0.000000 0.000000
					CHANNELS 3 Zrotation Yrotation Xrotation
					JOINT Neck1
					{
						OFFSET 0.000000 1.600000 0.340000
						CHANNELS 3 Zrotation Yrotation Xrotation
						JOINT Head
						{
							OFFSET 0.000000 1.667000 -0.240000
							CHANNELS 3 Zrotation Yrotation Xrotation
							End Site
							{
								OFFSET 0.000000 0.000000 0.000000
							}
						}
					}
				}
				JOINT LeftShoulder
				{
					OFFSET 0.000000 0.000000 0.000000
					CHANNELS 3 Zrotation Yrotation Xrotation
					JOINT LeftArm
					{
						OFFSET 2.700000 1.550000 -0.730000
						CHANNELS 3 Zrotation Yrotation Xrotation
						JOINT LeftForeArm
						{
							OFFSET 5.450000 0.000000 0.000000
							CHANNELS 3 Zrotation Yrotation Xrotation
							JOINT LeftHand
							{
								OFFSET 3.450000 0.000000 0.000000
								CHANNELS 3 Zrotation Yrotation Xrotation
								JOINT LeftHandIndex1
								{
									OFFSET 0.750000 0.000000 0.000000
									CHANNELS 3 Zrotation Yrotation Xrotation
									End Site
									{
										OFFSET 0.000000 0.000000 0.000000
									}
								}
							}
						}
					}
				}
				JOINT RightShoulder
				{
					OFFSET 0.000000 0.000000 0.000000
					CHANNELS 3 Zrotation Yrotation Xrotation
					JOINT RightArm
					{
						OFFSET -2.700000 1.550000 -0.730000
						CHANNELS 3 Zrotation Yrotation Xrotation
						JOINT RightForeArm
						{
							OFFSET -5.450000 0.000000 0.000000
							CHANNELS 3 Zrotation Yrotation Xrotation
							JOINT RightHand
							{
								OFFSET -3.450000 0.000000 0.000000
								CHANNELS 3 Zrotation Yrotation Xrotation
								JOINT RightHandIndex1
								{
									OFFSET -0.750000 0.000000 0.000000
									CHANNELS 3 Zrotation Yrotation Xrotation
									End Site
									{
										OFFSET 0.000000 0.000000 0.000000
									}
								}
							}
						}
					}
				}
			}
		}
	}
}
MOTION
Frames: 13
Frame Time: 0.016667
-0.947090 16.671600 1.580790 2.809215 14.724966 -14.783817 -15.156128 14.145647 3.422705 -1.182328 -1.165002 -2.312622 -5.898537 5.769074 12.308183 -0.244548 4.637837 2.980152 -0.787620 -0.532430 -1.108400 17.838313 -11.338824 2.630977 -25.325767 3.457399 10.200775 -3.482566 -5.717830 9.149710 -0.825206 -5.466613 2.383262 -0.393720 1.070140 0.373720 -3.449774 -2.733749 -7.614884 33.427934 3.194074 31.893022 -26.702064 15.271486 -7.199246 7.934604 -7.846871 -29.445396 -31.385093 33.247217 59.792888 7.016550 15.617970 4.608920 12.605139 -14.822126 8.586632 38.140404 23.170325 9.914995 156.810993 -20.354892 -55.114350 -3.973484 2.879567 0.681670 0.295790 0.257990 0.173950 -23.633117 35.986133 15.289451 -43.861113 1.031199 -10.517521 -120.909556 -12.905716 17.617619 3.319323 -0.832392 -0.403350 0.794590 0.942000 0.423350 
-0.944190 16.669250 1.578710 3.057860 14.889495 -14.862648 -15.166209 14.106939 3.442563 -1.511853 -1.175013 -2.061966 -5.985788 5.772378 12.169308 -0.236833 4.633582 2.959101 -0.773190 -0.514150 -1.081930 17.834261 -11.327472 2.631177 -25.579055 3.436429 10.084029 -2.627657 -5.927781 9.302464 -0.834212 -5.493807 2.353085 -0.399060 1.038410 0.398790 -3.428174 -2.710356 -7.638927 32.863092 3.070271 31.804509 -26.053225 15.407384 -6.768986 8.614813 -7.705669 -29.513361 -32.256833 33.967883 60.365768 5.454190 16.342620 4.493120 11.979456 -15.069861 8.521097 36.501886 21.653823 8.153793 155.808521 -17.332125 -45.542859 -3.989883 2.908749 0.682990 0.291600 0.285780 0.159140 -24.399144 36.299611 15.335238 -45.146105 1.946458 -10.441801 -120.866908 -13.378266 18.886672 3.350892 -0.785862 -0.372580 0.770370 0.941550 0.421360 
-0.952510 16.663500 1.575070 3.735259 14.945464 -15.093272 -15.198908 14.073754 3.495441 -2.121692 -1.210362 -1.459249 -6.097473 5.781961 11.855894 -0.270246 4.697947 2.922272 -0.779740 -0.542710 -1.050950 17.812745 -11.283462 2.605828 -26.184024 3.491983 10.218027 -2.416688 -6.045826 9.483456 -0.828923 -5.553727 2.312425 -0.401940 1.021840 0.410060 -3.345655 -2.788571 -7.665412 31.295392 3.000405 32.523175 -24.850063 15.377278 -6.681624 9.445905 -7.551292 -29.543485 -33.364991 35.030889 60.177680 3.841990 17.590720 4.609250 11.584601 -15.085502 8.594120 33.246036 19.313114 5.704487 154.813374 -13.319650 -33.676743 -4.054389 2.923594 0.705350 0.304700 0.283610 0.124800 -25.535926 36.309662 15.168946 -45.889619 2.586067 -10.399101 -121.005212 -13.566005 19.539339 3.346264 -0.762643 -0.389100 0.758810 0.963390 0.386290 
-0.943540 16.661480 1.599770 3.755483 15.134843 -13.026335 -15.368878 14.478371 3.620191 -2.550360 -1.501912 -3.906651 -5.811482 5.609744 11.988643 -0.312733 4.546004 2.951033 -0.802090 -0.572920 -0.999140 17.603666 -11.051268 2.519798 -25.585285 3.586279 8.625044 -2.220423 -5.805375 9.672128 -0.772023 -5.241350 2.391651 -0.429440 0.994040 0.435610 -2.848513 -3.962132 -7.708327 28.867405 4.720091 30.987270 -22.850909 15.186247 -11.044357 10.025383 -6.369694 -29.783318 -30.937751 35.291983 64.029578 3.374140 20.244260 6.187430 10.658224 -15.026727 7.440533 33.560303 12.625359 3.771762 152.873896 -10.443725 -19.801818 -4.089531 2.879760 0.718110 0.324520 0.319030 0.095560 -24.976072 36.298186 15.528582 -45.249701 6.748608 -10.284642 -121.641190 -12.788483 19.353710 3.170786 -0.775915 -0.388560 0.724790 0.959830 0.352040 
-0.943440 16.658560 1.601940 4.091122 15.384839 -12.482877 -15.416109 14.564538 3.666521 -2.912701 -1.657877 -4.405040 -5.834699 5.635082 12.133531 -0.332905 4.550347 2.943771 -0.849220 -0.640530 -0.962640 17.546461 -11.008398 2.480269 -25.802011 3.612008 8.125845 -2.223063 -5.794494 9.971744 -0.747996 -5.176750 2.398332 -0.471040 0.990150 0.448720 -2.709629 -4.230485 -7.716307 27.549358 4.763953 30.671141 -22.499392 14.664139 -12.192623 10.995462 -5.724853 -29.846633 -30.253392 35.669210 64.915854 2.716110 22.491800 6.678000 10.585292 -15.057046 7.065137 31.912630 6.730450 1.469374 150.332031 -6.197950 -4.361789 -4.245763 2.779785 0.735280 0.350440 0.327010 0.052430 -26.528778 36.167829 15.434636 -44.725711 8.961333 -10.664937 -123.066055 -13.314472 20.057599 3.166879 -0.779410 -0.409220 0.709290 0.980230 0.314420 
-0.944340 16.652870 1.595550 4.148892 15.052586 -12.700664 -15.393651 14.549545 3.662815 -2.830170 -1.751657 -4.302512 -6.172182 5.793304 12.335942 -0.316800 4.632813 2.920851 -0.926020 -0.743690 -0.969560 17.560582 -11.057611 2.476561 -25.999743 3.641287 7.910209 -2.309442 -5.822582 10.248489 -0.717078 -5.207959 2.373014 -0.527050 1.010800 0.475580 -2.743695 -4.102344 -7.694340 27.443820 3.678827 31.136833 -23.820445 14.009247 -11.982510 12.374911 -5.448820 -29.926717 -29.631318 35.857502 63.779148 2.058610 24.881060 7.955390 10.873487 -14.854947 6.840869 30.293366 2.793682 -0.861405 147.977842 -1.355176 9.257602 -4.430363 2.761208 0.721560 0.398380 0.306140 0.014920 -29.573285 36.341687 15.154783 -44.262141 9.782870 -11.470094 -125.402636 -14.696460 20.798482 3.290528 -0.855621 -0.428440 0.664490 1.013000 0.289920 
-0.938070 16.648510 1.591170 3.960069 14.423023 -12.876241 -15.366977 14.578646 3.662293 -2.719488 -1.981052 -4.249428 -6.304492 5.846339 12.507063 -0.332774 4.731192 2.914664 -1.041390 -0.907920 -0.997260 17.572310 -11.093181 2.486762 -26.017033 3.659689 7.528105 -2.338781 -5.827590 10.377209 -0.654745 -5.222294 2.373464 -0.598910 1.065020 0.487650 -2.771106 -4.008403 -7.655328 27.830729 1.613546 31.470966 -26.477417 12.490935 -11.846930 14.197902 -4.840132 -30.334614 -27.653456 36.256905 62.766250 1.160730 27.868120 9.654080 12.795559 -13.888228 6.739331 28.416939 0.980351 -2.945211 148.607365 2.129652 16.798545 -4.589012 2.804839 0.715970 0.470830 0.248010 -0.029980 -35.068299 36.346433 14.372998 -42.148319 10.221170 -12.935852 -127.694614 -19.802813 23.219002 3.537041 -1.050766 -0.489760 0.636810 1.070790 0.249010 
-0.937410 16.639880 1.573170 3.958718 13.294914 -14.487190 -15.225112 14.354612 3.569904 -2.540824 -2.035813 -2.489068 -6.612006 6.074876 12.845937 -0.277155 4.955521 2.883797 -1.117710 -1.025860 -1.011490 17.729787 -11.301378 2.504909 -26.532361 3.591713 7.866283 -2.900898 -5.910878 10.841365 -0.643738 -5.423907 2.291277 -0.650860 1.126550 0.533190 -3.115653 -3.028576 -7.605337 28.836641 -2.683424 32.587806 -30.775436 10.460924 -8.963142 16.263166 -4.760401 -30.389236 -26.991600 37.366329 58.627093 -0.771950 30.930220 9.645070 16.048858 -12.266208 6.975885 25.228419 1.882033 -5.522479 149.034111 6.038941 22.661804 -4.780586 2.936105 0.674500 0.543090 0.198100 -0.050600 -43.075475 35.720021 12.372914 -39.471114 8.859762 -13.808239 -131.314545 -26.547726 25.323762 3.963194 -1.437586 -0.512460 0.598220 1.105880 0.238160 
-0.944080 16.635220 1.574320 4.517782 10.525000 -15.576520 -14.994261 13.837514 3.439412 -2.966626 -2.167175 -0.717625 -7.437998 6.351661 12.847259 -0.200861 5.074480 2.865547 -1.156600 -1.066370 -1.034120 18.023644 -11.614959 2.479362 -27.583898 3.575837 6.995832 -4.201386 -5.771036 11.083257 -0.622332 -5.580311 2.209140 -0.661850 1.132170 0.545640 -3.670896 -1.301105 -7.680474 29.410460 -6.843296 32.693697 -34.950942 8.441013 -5.513165 17.864189 -5.265449 -29.573180 -26.836085 39.486022 53.718461 -2.653210 35.244390 9.869690 18.299977 -11.243814 7.389105 23.744077 4.873693 -8.122141 149.018480 9.502200 27.620529 -4.903803 3.132801 0.612010 0.582140 0.158530 -0.052350 -49.602715 35.142928 9.660094 -39.953603 8.448685 -15.344755 -134.322330 -31.608306 28.737984 4.364985 -1.632762 -0.517010 0.520750 1.093690 0.234950 
-0.950050 16.622200 1.576780 4.874507 9.451404 -15.236475 -14.833315 13.467031 3.305479 -3.826751 -2.688945 -0.944957 -6.536068 6.069971 13.263447 -0.229463 4.954377 2.935258 -1.175090 -1.088260 -1.067500 18.238297 -11.844892 2.437382 -28.241961 3.756132 5.717408 -5.324178 -5.521612 11.382862 -0.571749 -5.641923 2.168519 -0.643620 1.180020 0.546500 -4.078445 -0.007346 -7.792902 30.006366 -9.328996 31.619194 -37.862137 7.646903 -3.407287 18.567669 -6.213666 -29.332665 -27.578146 40.359076 49.110333 -2.709080 36.847770 10.619760 20.514545 -10.414186 7.828483 20.717585 6.406716 -10.276435 148.758427 13.518431 33.487842 -4.994485 3.348547 0.549920 0.626380 0.093760 -0.039920 -53.615064 35.477114 7.335081 -39.384006 7.937990 -17.863571 -136.571993 -32.857942 32.063079 4.646782 -1.578580 -0.538450 0.492500 1.092720 0.244330 
-0.965400 16.597580 1.579070 5.565452 10.522852 -15.268493 -14.611945 12.729675 3.084745 -4.254865 -2.782843 -0.041086 -7.578718 6.256682 12.804453 -0.307358 5.067080 2.938719 -1.145480 -1.067750 -1.046220 18.590634 -12.096329 2.411394 -29.460442 3.780026 6.191646 -5.665988 -5.704879 11.305897 -0.599513 -5.993561 2.041031 -0.565780 1.228460 0.533450 -4.815239 1.779863 -7.991658 31.426664 -10.657937 29.166604 -40.161060 9.156411 1.817607 17.155901 -7.747786 -28.497035 -27.504661 38.825675 45.827446 -4.868830 36.187120 7.420690 21.266796 -11.117569 8.013788 19.155458 6.395619 -11.386193 147.319538 16.547047 35.899756 -5.089256 3.419083 0.517470 0.671940 0.025530 -0.030890 -52.240128 35.512285 7.742962 -40.314986 7.811129 -19.084839 -139.973255 -33.463720 37.190822 4.630573 -1.495181 -0.595500 0.538710 1.092620 0.227340 
-0.982330 16.582590 1.573420 6.616573 12.731524 -14.902083 -14.399452 11.845395 2.851204 -5.657543 -3.071935 0.607709 -7.912102 6.268220 12.758280 -0.481150 5.108907 2.963129 -1.012590 -0.902120 -0.986300 18.983396 -12.303301 2.352048 -31.126442 3.751774 6.801657 -4.978940 -6.105403 11.298386 -0.635856 -6.439220 1.895796 -0.363480 1.270750 0.483850 -5.652950 3.697281 -8.193821 32.670807 -11.391444 26.257202 -41.157736 12.061462 7.676921 14.253748 -9.791174 -26.866286 -27.801688 36.585674 40.983638 -6.286650 33.691290 1.488660 23.136555 -10.680923 7.535349 15.202856 3.403519 -12.192137 146.434403 19.337292 36.939108 -5.112422 3.488382 0.478690 0.718360 -0.055940 0.013320 -48.052897 33.921054 9.963133 -42.041520 7.202256 -17.743049 -144.717191 -31.411460 40.694913 4.390019 -1.496267 -0.675730 0.641740 1.043430 0.201470 
-1.002180 16.569560 1.585410 7.746995 15.704459 -13.361770 -14.159898 10.756973 2.554319 -7.145893 -3.485517 0.473044 -8.666058 6.177287 12.300803 -0.638734 5.071918 2.994460 -0.871070 -0.734370 -0.939210 19.460012 -12.530775 2.190029 -32.680564 4.294755 7.107871 -4.865984 -6.382192 11.657497 -0.696348 -6.846481 1.729461 -0.192340 1.297150 0.491790 -6.681992 5.859411 -8.436888 34.761045 -9.397468 21.771935 -40.632493 16.408924 15.079936 11.739015 -11.681978 -23.839675 -27.375512 32.379458 36.592185 -7.411480 28.708410 -3.852640 22.997807 -12.031719 7.004216 13.246800 -2.142123 -12.893398 147.039182 20.992163 35.705744 -5.089786 3.554567 0.446050 0.736620 -0.092420 0.059890 -41.953747 32.855782 11.846498 -44.020230 6.094613 -16.338707 -143.829491 -30.331376 41.175085 4.236442 -1.449761 -0.692060 0.716740 1.009960 0.209780 
